<?xml version="1.0" encoding="UTF-8" standalone="no"?>
<!-- Created with Inkscape (http://www.inkscape.org/) -->

<svg
   xmlns:dc="http://purl.org/dc/elements/1.1/"
   xmlns:cc="http://creativecommons.org/ns#"
   xmlns:rdf="http://www.w3.org/1999/02/22-rdf-syntax-ns#"
   xmlns:svg="http://www.w3.org/2000/svg"
   xmlns="http://www.w3.org/2000/svg"
   version="1.1"
   width="892.91339"
   height="256.18109"
   id="svg3444">
  <defs
     id="defs3446" />
  <metadata
     id="metadata3449">
    <rdf:RDF>
      <cc:Work
         rdf:about="">
        <dc:format>image/svg+xml</dc:format>
        <dc:type
           rdf:resource="http://purl.org/dc/dcmitype/StillImage" />
        <dc:title></dc:title>
      </cc:Work>
    </rdf:RDF>
  </metadata>
  <g
     transform="translate(58.381671,-380.73581)"
     id="layer1">
    <g
       transform="matrix(6.6152758,0,0,6.6152758,-1955.6227,-4335.9515)"
       id="g3503">
      <g
         transform="matrix(0,-1.25,-1.25,0,300.43134,740.38218)"
         id="g3033">
        <path
           d="m 0,0 0,-6.093 6.058,-1.567 0,-0.035 L 0,-9.279 l 0,-6.023 12.43,-3.534 0,6.267 -6.581,1.393 0,0.035 6.581,1.288 0,4.247 -6.581,1.376 0,0.034 6.581,1.289 0,6.424 L 0,0"
           id="path3035"
           style="fill:#77787b;fill-opacity:1;fill-rule:nonzero;stroke:none" />
      </g>
      <path
         d="m 332.17134,740.38218 0,-15.5375 -7.856,0 0,15.5375 7.856,0 z"
         id="path3037"
         style="fill:#77787b;fill-opacity:1;fill-rule:nonzero;stroke:none" />
      <g
         transform="matrix(0,-1.25,-1.25,0,337.94634,740.38218)"
         id="g3039">
        <path
           d="m 0,0 0,-6.285 9.089,0 0,-3.69 3.341,0 0,13.666 -3.341,0 L 9.089,0 0,0"
           id="path3041"
           style="fill:#77787b;fill-opacity:1;fill-rule:nonzero;stroke:none" />
      </g>
      <g
         transform="matrix(0,-1.25,-1.25,0,359.32634,729.10968)"
         id="g3043">
        <path
           d="m 0,0 0,-2.037 c 0,-1.114 -0.313,-1.636 -1.097,-1.636 -0.923,0 -1.393,0.313 -1.393,1.741 L -2.49,0 0,0 z m -9.018,6.285 0,-6.285 4.004,0 0,-0.035 -4.004,-2.942 0,-7.433 5.136,4.317 c 0.156,-1.95 1.166,-3.865 3.638,-3.865 2.351,0 3.656,1.654 3.656,4.474 l 0,11.769 -12.43,0"
           id="path3045"
           style="fill:#77787b;fill-opacity:1;fill-rule:nonzero;stroke:none" />
      </g>
      <g
         transform="matrix(0,-1.25,-1.25,0,391.61009,740.38218)"
         id="g3047">
        <path
           d="m 0,0 0,-5.902 5.641,0 0,-0.034 -5.641,-4.37 0,-5.536 12.43,0 0,5.902 -5.188,0 0,0.034 5.188,3.604 L 12.43,0 0,0"
           id="path3049"
           style="fill:#77787b;fill-opacity:1;fill-rule:nonzero;stroke:none" />
      </g>
      <g
         transform="matrix(0,-1.25,-1.25,0,405.00759,719.60968)"
         id="g3051">
        <path
           d="m 0,0 0,57.341 2.783,0 0,-57.341 c 0,-7.171 -5.814,-12.985 -12.985,-12.985 -7.172,0 -12.986,5.814 -12.986,12.985 l 0,57.341 2.783,0 0,-57.341 c 0,-5.635 4.568,-10.202 10.203,-10.202 C -4.568,-10.202 0,-5.635 0,0"
           id="path3053"
           style="fill:#77787b;fill-opacity:1;fill-rule:nonzero;stroke:none" />
      </g>
      <g
         transform="matrix(0,-1.25,-1.25,0,332.17009,719.60968)"
         id="g3055">
        <path
           d="m 0,0 0,22.885 c 0,5.635 -4.568,10.203 -10.202,10.203 -5.635,0 -10.203,-4.568 -10.203,-10.203 l 0,-22.885 -2.783,0 0,22.885 c 0,7.172 5.814,12.985 12.986,12.985 7.171,0 12.985,-5.813 12.985,-12.985 L 2.783,0 0,0"
           id="path3057"
           style="fill:#0069aa;fill-opacity:1;fill-rule:nonzero;stroke:none" />
      </g>
      <g
         transform="matrix(0,-1.25,-1.25,0,405.00759,750.62343)"
         id="g3059">
        <path
           d="m 0,0 c 0,-3.383 1.15,-6.497 3.08,-8.973 l -0.582,0 C 0.638,-6.466 -0.463,-3.362 -0.463,0 l 0,57.341 0.463,0 L 0,0"
           id="path3061"
           style="fill:#77787b;fill-opacity:1;fill-rule:nonzero;stroke:none" />
      </g>
      <g
         transform="matrix(0,-1.25,-1.25,0,332.17009,714.10093)"
         id="g3063">
        <path
           d="m 0,0 0,22.885 c 0,3.135 -0.987,6.038 -2.667,8.417 l 0.562,0 c 1.622,-2.403 2.568,-5.299 2.568,-8.417 L 0.463,0 0,0"
           id="path3065"
           style="fill:#0069aa;fill-opacity:1;fill-rule:nonzero;stroke:none" />
      </g>
      <g
         transform="matrix(0,-1.25,-1.25,0,416.22384,717.95093)"
         id="g3067">
        <path
           d="m 0,0 c 1.93,2.476 3.08,5.591 3.08,8.973 l 0,57.342 0.463,0 0,-57.342 C 3.543,5.612 2.442,2.507 0.582,0 L 0,0"
           id="path3069"
           style="fill:#77787b;fill-opacity:1;fill-rule:nonzero;stroke:none" />
      </g>
      <g
         transform="matrix(0,-1.25,-1.25,0,332.17009,751.20218)"
         id="g3071">
        <path
           d="m 0,0 0,22.885 c 0,3.118 0.946,6.014 2.567,8.417 l 0.563,0 C 1.45,28.923 0.463,26.02 0.463,22.885 L 0.463,0 0,0"
           id="path3073"
           style="fill:#0069aa;fill-opacity:1;fill-rule:nonzero;stroke:none" />
      </g>
      <g
         transform="matrix(0,-1.25,-1.25,0,381.10884,735.37843)"
         id="g3075">
        <path
           d="M 0,0 C 0,1.627 0.871,2.205 2.191,2.205 3.511,2.205 4.382,1.627 4.382,0 4.382,-1.627 3.511,-2.205 2.191,-2.205 0.871,-2.205 0,-1.627 0,0 z m 2.174,7.536 c 3.671,0 6.647,-3.422 6.647,-7.642 0,-4.22 -2.976,-7.642 -6.647,-7.642 -3.671,0 -6.647,3.422 -6.647,7.642 0,4.22 2.976,7.642 6.647,7.642"
           id="path3077"
           style="fill:#77787b;fill-opacity:1;fill-rule:evenodd;stroke:none" />
      </g>
    </g>
  </g>
</svg>
